<svg xmlns="http://www.w3.org/2000/svg" viewBox="0 0 900 600" width="900" height="600">
  <rect width="300" height="600" fill="#008751"/>
  <rect x="300" width="300" height="600" fill="#FCD116"/>
  <rect x="600" width="300" height="600" fill="#E31118"/>
  <path fill="#008751" d="M450 240c-33.1 0-60 26.9-60 60s26.9 60 60 60 60-26.9 60-60-26.9-60-60-60zm0 90c-16.5 0-30-13.5-30-30s13.5-30 30-30 30 13.5 30 30-13.5 30-30 30z"/>
  <path fill="#008751" d="M450 270l15 46h48l-39 28 15 46-39-28-39 28 15-46-39-28h48z"/>
</svg>
